<svg width="138" height="30" viewBox="0 0 138 30" fill="none" xmlns="http://www.w3.org/2000/svg">
<g clip-path="url(#clip0_365_674)">
<path d="M98.9219 7.82886V26.6712H96.1354V10.2173L89.6998 26.6712H86.9796L80.544 10.2173V26.6712H77.7575V7.82886H82.1364L88.3066 23.6857L94.4767 7.82886H98.9219ZM39.144 25.9414C40.8027 26.5385 43.5229 26.9366 45.3142 26.9366C49.6931 26.9366 53.2094 25.0789 53.2094 21.4298C53.2094 18.6433 50.7546 17.1837 48.0344 16.1221L46.3758 15.4587C44.2527 14.6625 42.6604 13.8 42.6604 12.2077C42.6604 10.2837 44.8498 9.35482 47.1719 9.35482C48.9633 9.35482 50.6883 9.68655 52.2142 10.2837L52.4133 8.22694C50.6219 7.69617 49.0296 7.49713 47.1056 7.49713C43.4565 7.49713 39.4094 8.95675 39.4094 12.6058C39.4094 15.1269 41.6652 16.5202 43.921 17.3827L45.646 18.0462C48.0344 18.9087 49.8921 19.9703 49.8921 21.828C49.8921 24.0837 47.5037 25.0126 45.1815 25.0126C43.0585 25.0126 41.0017 24.4818 39.3431 23.6857L39.144 25.9414ZM106.154 26.6712V19.1741H108.741C113.12 19.1741 116.835 17.6481 116.835 13.2692C116.835 8.8904 113.054 7.82886 108.94 7.82886H103.102V26.6712H106.154ZM106.154 9.7529H109.139C111.727 9.7529 113.584 10.8144 113.584 13.2692C113.584 15.7241 111.926 17.1837 109.139 17.1837H106.154V9.7529ZM128.38 27.003C134.683 27.003 137.933 22.7567 137.933 17.25C137.933 11.7433 134.815 7.49713 128.38 7.49713C121.944 7.49713 118.826 11.9423 118.826 17.25C118.826 22.5577 122.077 27.003 128.38 27.003ZM122.077 17.25C122.077 13.8 123.934 9.55386 128.38 9.55386C132.825 9.55386 134.683 13.7337 134.683 17.25C134.683 20.7664 132.891 24.9462 128.38 24.9462C123.868 24.9462 122.077 20.7 122.077 17.25ZM64.9527 27.003C71.2556 27.003 74.5065 22.7567 74.5065 17.25C74.5065 11.7433 71.3883 7.49713 64.9527 7.49713C58.5171 7.49713 55.3989 12.0087 55.3989 17.25C55.3989 22.4914 58.6498 27.003 64.9527 27.003ZM58.6498 17.25C58.6498 13.8 60.5075 9.55386 64.9527 9.55386C69.3979 9.55386 71.2556 13.7337 71.2556 17.25C71.2556 20.7664 69.4642 24.9462 64.9527 24.9462C60.4412 24.9462 58.6498 20.7 58.6498 17.25Z" fill="white"/>
<path d="M12.4067 5.10861C19.2404 5.10861 24.8135 10.6153 24.7471 17.449C24.7471 24.2826 19.2404 29.8558 12.4067 29.8558C5.57308 29.8558 0 24.2826 0 17.449C0 10.6153 5.57308 5.10861 12.4067 5.10861Z" fill="url(#paint0_linear_365_674)"/>
<g style="mix-blend-mode:multiply">
<path d="M21.8943 25.4107C22.8232 24.3491 23.553 23.0885 24.0174 21.7616C22.2924 23.0885 20.1029 23.8847 17.7808 23.8847C12.1414 23.8847 7.62989 19.3068 7.62989 13.7337C7.62989 10.0847 9.55392 6.83374 12.4732 5.04239C11.0135 5.04239 9.62027 5.30777 8.35969 5.7722C6.56831 7.89527 5.44043 10.6818 5.44043 13.7337C5.44043 20.5674 11.0135 26.1405 17.8472 26.1405C19.1741 26.1405 20.5674 25.8751 21.8943 25.4107Z" fill="#B4B3B3"/>
</g>
<path d="M5.1084 12.4067C5.1084 19.2404 10.6151 24.7471 17.4487 24.7471C24.2824 24.7471 29.8555 19.2404 29.8555 12.4067C29.8555 5.57308 24.2824 0 17.4487 0C10.6151 0 5.1084 5.57308 5.1084 12.4067ZM28.3959 12.4067C28.3959 18.4442 23.4863 23.3538 17.4487 23.3538C11.4112 23.3538 6.56801 18.4442 6.56801 12.4067C6.56801 6.36923 11.4112 1.45962 17.4487 1.45962C23.4863 1.45962 28.3959 6.36923 28.3959 12.4067Z" fill="url(#paint1_linear_365_674)"/>
<path d="M6.23633 12.4067C6.23633 18.6433 11.2786 23.6856 17.5152 23.6856C23.7517 23.6856 28.794 18.6433 28.794 12.4067C28.794 6.17015 23.7517 1.12784 17.5152 1.12784C11.2786 1.12784 6.23633 6.17015 6.23633 12.4067ZM27.6661 12.4067C27.6661 18.0461 23.0882 22.5577 17.5152 22.5577C11.9421 22.5577 7.29787 17.9798 7.29787 12.4067C7.29787 6.83364 11.8758 2.18938 17.4488 2.18938C23.0219 2.18938 27.6661 6.7673 27.6661 12.4067Z" fill="url(#paint2_linear_365_674)"/>
</g>
<defs>
<linearGradient id="paint0_linear_365_674" x1="12.3883" y1="29.8558" x2="12.3883" y2="5.07922" gradientUnits="userSpaceOnUse">
<stop stop-color="#741610"/>
<stop offset="1" stop-color="#E10533"/>
</linearGradient>
<linearGradient id="paint1_linear_365_674" x1="17.4673" y1="24.7764" x2="17.4673" y2="0" gradientUnits="userSpaceOnUse">
<stop stop-color="#CDCCCC"/>
<stop offset="0.09" stop-color="#A6A5A5"/>
<stop offset="0.4" stop-color="#404040"/>
<stop offset="0.5" stop-color="#E7E6E6"/>
<stop offset="1" stop-color="#BFBEBE"/>
</linearGradient>
<linearGradient id="paint2_linear_365_674" x1="17.4673" y1="23.6481" x2="17.4673" y2="1.12824" gradientUnits="userSpaceOnUse">
<stop stop-color="#404040"/>
<stop offset="0.27" stop-color="#999999"/>
<stop offset="0.5" stop-color="#E7E6E6"/>
<stop offset="0.86" stop-color="#999999"/>
<stop offset="1" stop-color="#404040"/>
</linearGradient>
<clipPath id="clip0_365_674">
<rect width="138" height="29.8558" fill="white"/>
</clipPath>
</defs>
</svg>
